<svg width="17" height="17" viewBox="0 0 17 17" fill="none" xmlns="http://www.w3.org/2000/svg">
<path d="M3.14286 1H13.8571C15.0443 1 16 1.95571 16 3.14286V13.8571C16 15.0443 15.0443 16 13.8571 16H3.14286C1.95571 16 1 15.0443 1 13.8571V3.14286C1 1.95571 1.95571 1 3.14286 1Z" stroke="black" stroke-linecap="round" stroke-linejoin="round"/>
<path d="M4.21436 4.21436H5.28578" stroke="black" stroke-linecap="round" stroke-linejoin="round"/>
<path d="M6.35728 5.28592C6.07312 5.28592 5.8006 5.17304 5.59967 4.97211C5.39874 4.77118 5.28585 4.49866 5.28585 4.21449C5.28585 3.93033 5.39874 3.65781 5.59967 3.45688C5.8006 3.25595 6.07312 3.14307 6.35728 3.14307C6.49798 3.14307 6.63731 3.17078 6.7673 3.22462C6.89729 3.27847 7.01541 3.35739 7.1149 3.45688C7.21439 3.55637 7.29331 3.67449 7.34715 3.80448C7.401 3.93447 7.42871 4.07379 7.42871 4.21449C7.42871 4.3552 7.401 4.49452 7.34715 4.62451C7.29331 4.7545 7.21439 4.87262 7.1149 4.97211C7.01541 5.0716 6.89729 5.15052 6.7673 5.20437C6.63731 5.25821 6.49798 5.28592 6.35728 5.28592Z" stroke="black" stroke-linecap="round" stroke-linejoin="round"/>
<path d="M7.42871 4.21438L12.7859 4.21436" stroke="black" stroke-linecap="round" stroke-linejoin="round"/>
<path d="M12.7858 8.5H11.7144" stroke="black" stroke-linecap="round" stroke-linejoin="round"/>
<path d="M10.6427 9.57157C10.9269 9.57157 11.1994 9.45869 11.4003 9.25775C11.6013 9.05682 11.7141 8.7843 11.7141 8.50014C11.7141 8.21598 11.6013 7.94346 11.4003 7.74253C11.1994 7.54159 10.9269 7.42871 10.6427 7.42871C10.3586 7.42871 10.086 7.54159 9.8851 7.74253C9.68417 7.94346 9.57129 8.21598 9.57129 8.50014C9.57129 8.7843 9.68417 9.05682 9.8851 9.25775C10.086 9.45869 10.3586 9.57157 10.6427 9.57157Z" stroke="black" stroke-linecap="round" stroke-linejoin="round"/>
<path d="M9.5715 8.50002L4.21436 8.5" stroke="black" stroke-linecap="round" stroke-linejoin="round"/>
<path d="M4.21436 12.7856H5.28578" stroke="black" stroke-linecap="round" stroke-linejoin="round"/>
<path d="M6.35728 13.8572C6.07312 13.8572 5.8006 13.7443 5.59967 13.5434C5.39874 13.3425 5.28585 13.0699 5.28585 12.7858C5.28585 12.5016 5.39874 12.2291 5.59967 12.0282C5.8006 11.8272 6.07312 11.7144 6.35728 11.7144C6.49798 11.7144 6.63731 11.7421 6.7673 11.7959C6.89729 11.8498 7.01541 11.9287 7.1149 12.0282C7.21439 12.1277 7.29331 12.2458 7.34715 12.3758C7.401 12.5058 7.42871 12.6451 7.42871 12.7858C7.42871 12.9265 7.401 13.0658 7.34715 13.1958C7.29331 13.3258 7.21439 13.4439 7.1149 13.5434C7.01541 13.6429 6.89729 13.7218 6.7673 13.7757C6.63731 13.8295 6.49798 13.8572 6.35728 13.8572Z" stroke="black" stroke-linecap="round" stroke-linejoin="round"/>
<path d="M7.42871 12.7857L12.7859 12.7856" stroke="black" stroke-linecap="round" stroke-linejoin="round"/>
</svg>
