<svg width="17" height="13" viewBox="0 0 17 13" fill="none" xmlns="http://www.w3.org/2000/svg">
<path d="M5 6.00002C6.38071 6.00002 7.49999 4.88074 7.49999 3.50003C7.49999 2.11932 6.38071 1.00003 5 1.00003C3.61929 1.00003 2.5 2.11932 2.5 3.50003C2.5 4.88074 3.61929 6.00002 5 6.00002Z" fill="#120112" fill-opacity="0.5"/>
<path d="M7.49999 7.72581C6.53118 7.20685 5.46192 7 4.67889 7C3.14518 7 0 7.99218 0 9.9758V11.5H5.16054V10.9168C5.16054 10.2273 5.43577 9.53596 5.91742 8.95967C6.30171 8.49951 6.83978 8.07238 7.49999 7.72581Z" fill="#120112" fill-opacity="0.5"/>
<path d="M11.5 7.49995C9.66419 7.49995 6 8.61662 6 10.8333V12.4999H17V10.8333C17 8.61662 13.3358 7.49995 11.5 7.49995Z" fill="#120112" fill-opacity="0.5"/>
<path d="M11.5 5.99999C13.1568 5.99999 14.5 4.65685 14.5 2.99999C14.5 1.34314 13.1568 0 11.5 0C9.84314 0 8.5 1.34314 8.5 2.99999C8.5 4.65685 9.84314 5.99999 11.5 5.99999Z" fill="#120112" fill-opacity="0.5"/>
</svg>
