<svg width="17" height="17" viewBox="0 0 17 17" fill="none" xmlns="http://www.w3.org/2000/svg">
<path d="M3.14286 1H13.8571C15.0443 1 16 1.95571 16 3.14286V13.8571C16 15.0443 15.0443 16 13.8571 16H3.14286C1.95571 16 1 15.0443 1 13.8571V3.14286C1 1.95571 1.95571 1 3.14286 1Z" stroke="#8B8C8D" stroke-linecap="round" stroke-linejoin="round"/>
<path d="M4.21387 4.21423H5.28529" stroke="#8B8C8D" stroke-linecap="round" stroke-linejoin="round"/>
<path d="M6.35728 5.28568C6.07312 5.28568 5.8006 5.1728 5.59967 4.97187C5.39874 4.77093 5.28585 4.49841 5.28585 4.21425C5.28585 3.93009 5.39874 3.65757 5.59967 3.45664C5.8006 3.2557 6.07312 3.14282 6.35728 3.14282C6.49798 3.14282 6.63731 3.17054 6.7673 3.22438C6.89729 3.27822 7.01541 3.35715 7.1149 3.45664C7.21439 3.55613 7.29331 3.67424 7.34715 3.80423C7.401 3.93422 7.42871 4.07355 7.42871 4.21425C7.42871 4.35495 7.401 4.49428 7.34715 4.62427C7.29331 4.75426 7.21439 4.87237 7.1149 4.97187C7.01541 5.07136 6.89729 5.15028 6.7673 5.20412C6.63731 5.25797 6.49798 5.28568 6.35728 5.28568Z" stroke="#8B8C8D" stroke-linecap="round" stroke-linejoin="round"/>
<path d="M7.42871 4.21426L12.7859 4.21423" stroke="#8B8C8D" stroke-linecap="round" stroke-linejoin="round"/>
<path d="M12.7853 8.5H11.7139" stroke="#8B8C8D" stroke-linecap="round" stroke-linejoin="round"/>
<path d="M10.6427 9.57145C10.9269 9.57145 11.1994 9.45856 11.4003 9.25763C11.6013 9.0567 11.7141 8.78418 11.7141 8.50002C11.7141 8.21586 11.6013 7.94334 11.4003 7.7424C11.1994 7.54147 10.9269 7.42859 10.6427 7.42859C10.3586 7.42859 10.086 7.54147 9.8851 7.7424C9.68417 7.94334 9.57129 8.21586 9.57129 8.50002C9.57129 8.78418 9.68417 9.0567 9.8851 9.25763C10.086 9.45856 10.3586 9.57145 10.6427 9.57145Z" stroke="#8B8C8D" stroke-linecap="round" stroke-linejoin="round"/>
<path d="M9.57101 8.50002L4.21387 8.5" stroke="#8B8C8D" stroke-linecap="round" stroke-linejoin="round"/>
<path d="M4.21387 12.7858H5.28529" stroke="#8B8C8D" stroke-linecap="round" stroke-linejoin="round"/>
<path d="M6.35728 13.8571C6.07312 13.8571 5.8006 13.7442 5.59967 13.5433C5.39874 13.3423 5.28585 13.0698 5.28585 12.7857C5.28585 12.5015 5.39874 12.229 5.59967 12.028C5.8006 11.8271 6.07312 11.7142 6.35728 11.7142C6.49798 11.7142 6.63731 11.7419 6.7673 11.7958C6.89729 11.8496 7.01541 11.9286 7.1149 12.028C7.21439 12.1275 7.29331 12.2457 7.34715 12.3756C7.401 12.5056 7.42871 12.645 7.42871 12.7857C7.42871 12.9264 7.401 13.0657 7.34715 13.1957C7.29331 13.3257 7.21439 13.4438 7.1149 13.5433C7.01541 13.6428 6.89729 13.7217 6.7673 13.7755C6.63731 13.8294 6.49798 13.8571 6.35728 13.8571Z" stroke="#8B8C8D" stroke-linecap="round" stroke-linejoin="round"/>
<path d="M7.42871 12.7858L12.7859 12.7858" stroke="#8B8C8D" stroke-linecap="round" stroke-linejoin="round"/>
</svg>
