<svg width="24" height="24" viewBox="0 0 24 24" fill="none" xmlns="http://www.w3.org/2000/svg">
<path d="M4 20.0001C3.45 20.0001 2.97917 19.8042 2.5875 19.4126C2.19583 19.0209 2 18.5501 2 18.0001V6.00006C2 5.45006 2.19583 4.97923 2.5875 4.58756C2.97917 4.19589 3.45 4.00006 4 4.00006H10L12 6.00006H20C20.55 6.00006 21.0208 6.19589 21.4125 6.58756C21.8042 6.97923 22 7.45006 22 8.00006V18.0001C22 18.5501 21.8042 19.0209 21.4125 19.4126C21.0208 19.8042 20.55 20.0001 20 20.0001H4ZM4 18.0001H20V8.00006H11.175L9.175 6.00006H4V18.0001Z" fill="#49454F"/>
</svg>
