<svg width="36" height="36" viewBox="0 0 36 36" fill="none" xmlns="http://www.w3.org/2000/svg">
<path d="M18.0003 32.8581C26.0545 32.8581 32.5837 26.3289 32.5837 18.2747C32.5837 10.2206 26.0545 3.69141 18.0003 3.69141C9.94617 3.69141 3.41699 10.2206 3.41699 18.2747C3.41699 26.3289 9.94617 32.8581 18.0003 32.8581Z" fill="#C8D756"/>
<path d="M18.0003 12.4414V24.1081M12.167 18.2747H23.8337M32.5837 18.2747C32.5837 26.3289 26.0545 32.8581 18.0003 32.8581C9.94617 32.8581 3.41699 26.3289 3.41699 18.2747C3.41699 10.2206 9.94617 3.69141 18.0003 3.69141C26.0545 3.69141 32.5837 10.2206 32.5837 18.2747Z" stroke="white" stroke-linecap="round" stroke-linejoin="round"/>
</svg>
