<svg width="14" height="14" viewBox="0 0 14 14" fill="none" xmlns="http://www.w3.org/2000/svg">
<path d="M4.30726 10.3158C4.30726 10.3158 9.33239 11.0526 11.486 13.2632H12.2039C12.3943 13.2632 12.5769 13.1855 12.7115 13.0473C12.8461 12.9092 12.9218 12.7217 12.9218 12.5263V8.05884C13.2303 7.97742 13.5037 7.793 13.6989 7.53462C13.8941 7.27623 14 6.95855 14 6.63158C14 6.30461 13.8941 5.98693 13.6989 5.72854C13.5037 5.47015 13.2303 5.28573 12.9218 5.20432V0.736842C12.9218 0.541419 12.8461 0.354001 12.7115 0.215816C12.5769 0.0776313 12.3943 0 12.2039 0H11.486C9.33239 2.21053 4.30726 2.94737 4.30726 2.94737H1.43575C1.05497 2.94737 0.689778 3.10263 0.420522 3.379C0.151266 3.65537 0 4.03021 0 4.42105V8.8421C0 9.23295 0.151266 9.60779 0.420522 9.88416C0.689778 10.1605 1.05497 10.3158 1.43575 10.3158H2.15363L2.8715 14H4.30726V10.3158ZM5.74301 4.17126C6.23332 4.06368 6.83921 3.91337 7.49463 3.71663C8.69922 3.35263 10.2297 2.78011 11.486 1.89663V11.3658C10.2297 10.4831 8.6985 9.91053 7.49463 9.54653C6.91641 9.37309 6.33214 9.22169 5.74301 9.09263V4.17126ZM1.43575 4.42105H4.30726V8.8421H1.43575V4.42105Z" fill="#120112" fill-opacity="0.5"/>
</svg>
